<mxfile host="65bd71144e">
    <diagram id="UmFO5lymeg66QhbwHCOe" name="Page-1">
        <mxGraphModel dx="1360" dy="913" grid="1" gridSize="10" guides="1" tooltips="1" connect="1" arrows="1" fold="1" page="1" pageScale="1" pageWidth="850" pageHeight="1100" math="0" shadow="0">
            <root>
                <mxCell id="0"/>
                <mxCell id="3" value="Untitled Layer" parent="0"/>
                <mxCell id="25" value="" style="endArrow=none;dashed=1;html=1;dashPattern=1 3;strokeWidth=2;sketch=1;" edge="1" parent="3">
                    <mxGeometry width="50" height="50" relative="1" as="geometry">
                        <mxPoint x="156" y="440" as="sourcePoint"/>
                        <mxPoint x="156" y="60" as="targetPoint"/>
                    </mxGeometry>
                </mxCell>
                <mxCell id="24" value="" style="curved=1;endArrow=classic;html=1;sketch=1;strokeWidth=4;fillColor=#f8cecc;strokeColor=#b85450;" edge="1" parent="3">
                    <mxGeometry width="50" height="50" relative="1" as="geometry">
                        <mxPoint x="130" y="290" as="sourcePoint"/>
                        <mxPoint x="780" y="200" as="targetPoint"/>
                        <Array as="points">
                            <mxPoint x="263" y="210"/>
                            <mxPoint x="356" y="230"/>
                            <mxPoint x="463" y="255"/>
                            <mxPoint x="562" y="251"/>
                        </Array>
                    </mxGeometry>
                </mxCell>
                <mxCell id="5" value="" style="endArrow=classic;html=1;strokeWidth=4;sketch=1;curveFitting=1;jiggle=2;" edge="1" parent="3">
                    <mxGeometry width="50" height="50" relative="1" as="geometry">
                        <mxPoint x="80" y="400" as="sourcePoint"/>
                        <mxPoint x="80" y="110" as="targetPoint"/>
                    </mxGeometry>
                </mxCell>
                <mxCell id="6" value="" style="endArrow=classic;html=1;strokeWidth=4;sketch=1;curveFitting=1;jiggle=2;" edge="1" parent="3">
                    <mxGeometry width="50" height="50" relative="1" as="geometry">
                        <mxPoint x="80" y="400" as="sourcePoint"/>
                        <mxPoint x="926" y="400" as="targetPoint"/>
                    </mxGeometry>
                </mxCell>
                <mxCell id="8" value="" style="ellipse;whiteSpace=wrap;html=1;aspect=fixed;sketch=1;opacity=50;curveFitting=1;jiggle=2;fillColor=none;strokeWidth=3;" vertex="1" parent="3">
                    <mxGeometry x="146" y="265" width="20" height="20" as="geometry"/>
                </mxCell>
                <mxCell id="12" value="" style="ellipse;whiteSpace=wrap;html=1;aspect=fixed;sketch=1;opacity=50;curveFitting=1;jiggle=2;fillColor=none;strokeWidth=3;" vertex="1" parent="3">
                    <mxGeometry x="243" y="220" width="20" height="20" as="geometry"/>
                </mxCell>
                <mxCell id="13" value="" style="ellipse;whiteSpace=wrap;html=1;aspect=fixed;sketch=1;opacity=50;curveFitting=1;jiggle=2;fillColor=none;strokeWidth=3;" vertex="1" parent="3">
                    <mxGeometry x="348" y="220" width="20" height="20" as="geometry"/>
                </mxCell>
                <mxCell id="14" value="" style="ellipse;whiteSpace=wrap;html=1;aspect=fixed;sketch=1;opacity=50;curveFitting=1;jiggle=2;fillColor=none;strokeWidth=3;" vertex="1" parent="3">
                    <mxGeometry x="447" y="239" width="20" height="20" as="geometry"/>
                </mxCell>
                <mxCell id="15" value="" style="ellipse;whiteSpace=wrap;html=1;aspect=fixed;sketch=1;opacity=50;curveFitting=1;jiggle=2;fillColor=none;strokeWidth=3;" vertex="1" parent="3">
                    <mxGeometry x="551" y="236" width="20" height="20" as="geometry"/>
                </mxCell>
                <mxCell id="16" value="" style="endArrow=none;html=1;sketch=1;strokeWidth=4;fillColor=#d5e8d4;strokeColor=#82b366;" edge="1" parent="3">
                    <mxGeometry width="50" height="50" relative="1" as="geometry">
                        <mxPoint x="131" y="291" as="sourcePoint"/>
                        <mxPoint x="181" y="258" as="targetPoint"/>
                    </mxGeometry>
                </mxCell>
                <mxCell id="17" value="" style="endArrow=none;html=1;sketch=1;strokeWidth=4;fillColor=#d5e8d4;strokeColor=#82b366;" edge="1" parent="3">
                    <mxGeometry width="50" height="50" relative="1" as="geometry">
                        <mxPoint x="229" y="237" as="sourcePoint"/>
                        <mxPoint x="281" y="219" as="targetPoint"/>
                    </mxGeometry>
                </mxCell>
                <mxCell id="18" value="" style="endArrow=none;html=1;sketch=1;strokeWidth=4;fillColor=#d5e8d4;strokeColor=#82b366;" edge="1" parent="3">
                    <mxGeometry width="50" height="50" relative="1" as="geometry">
                        <mxPoint x="334" y="226" as="sourcePoint"/>
                        <mxPoint x="385" y="236" as="targetPoint"/>
                    </mxGeometry>
                </mxCell>
                <mxCell id="19" value="" style="endArrow=none;html=1;sketch=1;strokeWidth=4;fillColor=#d5e8d4;strokeColor=#82b366;" edge="1" parent="3">
                    <mxGeometry width="50" height="50" relative="1" as="geometry">
                        <mxPoint x="438" y="249" as="sourcePoint"/>
                        <mxPoint x="485" y="249" as="targetPoint"/>
                    </mxGeometry>
                </mxCell>
                <mxCell id="20" value="" style="endArrow=none;html=1;sketch=1;strokeWidth=4;fillColor=#d5e8d4;strokeColor=#82b366;" edge="1" parent="3">
                    <mxGeometry width="50" height="50" relative="1" as="geometry">
                        <mxPoint x="536" y="246" as="sourcePoint"/>
                        <mxPoint x="584" y="242" as="targetPoint"/>
                    </mxGeometry>
                </mxCell>
                <mxCell id="26" value="" style="endArrow=none;dashed=1;html=1;dashPattern=1 3;strokeWidth=2;sketch=1;" edge="1" parent="3">
                    <mxGeometry width="50" height="50" relative="1" as="geometry">
                        <mxPoint x="257" y="439" as="sourcePoint"/>
                        <mxPoint x="257" y="59" as="targetPoint"/>
                    </mxGeometry>
                </mxCell>
                <mxCell id="27" value="" style="endArrow=none;dashed=1;html=1;dashPattern=1 3;strokeWidth=2;sketch=1;" edge="1" parent="3">
                    <mxGeometry width="50" height="50" relative="1" as="geometry">
                        <mxPoint x="358" y="437" as="sourcePoint"/>
                        <mxPoint x="358" y="57" as="targetPoint"/>
                    </mxGeometry>
                </mxCell>
                <mxCell id="28" value="" style="endArrow=none;dashed=1;html=1;dashPattern=1 3;strokeWidth=2;sketch=1;" edge="1" parent="3">
                    <mxGeometry width="50" height="50" relative="1" as="geometry">
                        <mxPoint x="459" y="441" as="sourcePoint"/>
                        <mxPoint x="459" y="60.999999999999886" as="targetPoint"/>
                    </mxGeometry>
                </mxCell>
                <mxCell id="29" value="" style="endArrow=none;dashed=1;html=1;dashPattern=1 3;strokeWidth=2;sketch=1;" edge="1" parent="3">
                    <mxGeometry width="50" height="50" relative="1" as="geometry">
                        <mxPoint x="559.9999999999998" y="442" as="sourcePoint"/>
                        <mxPoint x="559.9999999999998" y="61.999999999999886" as="targetPoint"/>
                    </mxGeometry>
                </mxCell>
                <mxCell id="30" value="q" style="text;html=1;strokeColor=none;fillColor=none;align=center;verticalAlign=middle;whiteSpace=wrap;rounded=0;sketch=1;strokeWidth=3;opacity=50;fontFamily=Tahoma;fontSize=47;" vertex="1" parent="3">
                    <mxGeometry x="10" y="130" width="60" height="30" as="geometry"/>
                </mxCell>
                <mxCell id="31" value="q(t&lt;sub&gt;i&lt;/sub&gt;)" style="text;html=1;strokeColor=none;fillColor=none;align=center;verticalAlign=middle;whiteSpace=wrap;rounded=0;sketch=1;strokeWidth=3;opacity=50;fontFamily=Tahoma;fontSize=47;" vertex="1" parent="3">
                    <mxGeometry x="380" y="190" width="60" height="30" as="geometry"/>
                </mxCell>
                <mxCell id="32" value="t&lt;sub&gt;i-2&lt;/sub&gt;" style="text;html=1;strokeColor=none;fillColor=none;align=center;verticalAlign=middle;whiteSpace=wrap;rounded=0;sketch=1;strokeWidth=3;opacity=50;fontFamily=Tahoma;fontSize=47;" vertex="1" parent="3">
                    <mxGeometry x="153" y="420" width="84" height="30" as="geometry"/>
                </mxCell>
                <mxCell id="33" value="t&lt;sub&gt;i-1&lt;/sub&gt;" style="text;html=1;strokeColor=none;fillColor=none;align=center;verticalAlign=middle;whiteSpace=wrap;rounded=0;sketch=1;strokeWidth=3;opacity=50;fontFamily=Tahoma;fontSize=47;" vertex="1" parent="3">
                    <mxGeometry x="250" y="420" width="84" height="30" as="geometry"/>
                </mxCell>
                <mxCell id="34" value="t&lt;sub&gt;i&lt;/sub&gt;" style="text;html=1;strokeColor=none;fillColor=none;align=center;verticalAlign=middle;whiteSpace=wrap;rounded=0;sketch=1;strokeWidth=3;opacity=50;fontFamily=Tahoma;fontSize=47;" vertex="1" parent="3">
                    <mxGeometry x="339" y="420" width="84" height="30" as="geometry"/>
                </mxCell>
                <mxCell id="35" value="t&lt;sub&gt;i+1&lt;/sub&gt;" style="text;html=1;strokeColor=none;fillColor=none;align=center;verticalAlign=middle;whiteSpace=wrap;rounded=0;sketch=1;strokeWidth=3;opacity=50;fontFamily=Tahoma;fontSize=47;" vertex="1" parent="3">
                    <mxGeometry x="460" y="421" width="84" height="30" as="geometry"/>
                </mxCell>
                <mxCell id="36" value="t&lt;sub&gt;i+2&lt;/sub&gt;" style="text;html=1;strokeColor=none;fillColor=none;align=center;verticalAlign=middle;whiteSpace=wrap;rounded=0;sketch=1;strokeWidth=3;opacity=50;fontFamily=Tahoma;fontSize=47;" vertex="1" parent="3">
                    <mxGeometry x="560" y="421" width="84" height="30" as="geometry"/>
                </mxCell>
            </root>
        </mxGraphModel>
    </diagram>
</mxfile>